<?xml version="1.0" standalone="no"?>
<!DOCTYPE svg PUBLIC "-//W3C//DTD SVG 20010904//EN"
 "http://www.w3.org/TR/2001/REC-SVG-20010904/DTD/svg10.dtd">
<svg version="1.0" xmlns="http://www.w3.org/2000/svg"
 width="500.000000pt" height="500.000000pt" viewBox="0 0 500.000000 500.000000"
 preserveAspectRatio="xMidYMid meet">

<g transform="translate(0.000000,500.000000) scale(0.100000,-0.100000)"
fill="#000000" stroke="none">
<path d="M2270 4989 c-381 -39 -728 -153 -1045 -341 -620 -370 -1050 -986
-1179 -1690 -39 -214 -49 -343 -43 -532 7 -201 25 -328 73 -523 111 -454 332
-842 667 -1176 317 -316 749 -559 1169 -656 220 -52 342 -65 583 -65 204 0
249 3 397 27 155 26 324 67 415 101 145 55 191 74 296 127 569 285 989 739
1221 1322 56 140 112 340 135 482 6 39 16 99 22 135 17 104 23 393 10 510 -64
567 -249 1004 -599 1416 -468 553 -1179 879 -1902 872 -74 0 -173 -5 -220 -9z
m2125 -890 c28 -32 52 -64 54 -70 6 -18 -106 -116 -209 -184 -152 -100 -369
-187 -560 -226 -112 -23 -452 -80 -620 -104 -298 -43 -309 -44 -454 -59 -76
-8 -140 -17 -143 -19 -6 -7 32 -101 61 -151 14 -25 36 -48 47 -51 12 -4 320
-5 685 -4 l664 4 0 69 c0 58 2 67 16 62 9 -3 27 -6 40 -6 l24 0 0 -310 0 -310
-40 0 -40 0 0 75 0 75 -47 1 c-27 0 -657 1 -1401 1 -1246 -1 -1355 -2 -1372
-17 -13 -12 -20 -38 -25 -91 -7 -74 -8 -75 -34 -72 l-26 3 -3 410 c-1 236 2
432 8 462 32 178 141 333 277 396 46 21 63 22 336 25 161 2 326 -1 373 -7 155
-19 271 -99 337 -234 27 -56 28 -57 70 -57 147 1 663 64 980 121 302 54 649
168 855 280 48 26 89 48 92 48 3 0 28 -27 55 -60z m-1065 -1351 c-4 -24 -16
-88 -26 -143 -20 -113 -16 -142 16 -125 25 13 47 47 53 80 3 14 10 54 16 90
16 92 32 150 42 150 13 0 11 -42 -5 -113 -33 -142 -38 -176 -33 -191 10 -25
33 -19 62 15 29 36 40 34 26 -4 -15 -40 -56 -63 -86 -49 -14 7 -25 16 -25 22
0 6 -13 1 -29 -11 -63 -46 -87 1 -65 128 16 97 34 184 41 196 12 20 19 -7 13
-45z m-1609 13 c41 -50 10 -121 -62 -142 -22 -7 -39 -18 -39 -27 0 -27 53
-100 85 -115 30 -16 30 -16 4 -16 -35 -1 -83 44 -105 98 -15 37 -19 41 -25 25
-4 -10 -11 -40 -14 -66 -6 -44 -19 -67 -31 -55 -5 5 41 251 52 281 4 11 0 16
-15 16 -25 0 -28 17 -3 24 9 2 44 4 76 2 48 -2 63 -7 77 -25z m822 -14 c-8
-45 -23 -58 -23 -20 0 39 9 65 21 58 4 -3 6 -20 2 -38z m477 28 c34 -18 46
-51 33 -92 -6 -20 -24 -36 -63 -55 -39 -19 -54 -32 -52 -44 7 -33 56 -96 86
-109 l31 -13 -27 -1 c-37 -1 -83 41 -104 94 -16 44 -34 52 -34 15 0 -36 -22
-120 -31 -120 -14 0 -11 36 16 165 29 140 30 145 10 145 -18 0 -20 16 -2 23
27 11 110 6 137 -8z m-674 -79 c-6 -29 -3 -35 16 -41 l23 -7 -25 -7 c-27 -7
-48 -58 -49 -119 -1 -43 22 -51 61 -22 37 27 49 18 18 -15 -31 -33 -74 -33
-96 0 -15 22 -15 30 0 87 9 35 12 64 7 66 -5 2 -3 15 4 30 8 15 16 35 19 45
10 33 29 19 22 -17z m-465 -36 c10 -6 19 -17 19 -25 0 -19 -10 -19 -24 1 -35
48 -96 -73 -70 -140 17 -46 72 5 81 76 4 29 9 36 18 28 13 -11 8 -47 -13 -101
-17 -44 -68 -53 -103 -18 -18 18 -20 29 -16 64 9 59 26 94 56 110 32 17 28 17
52 5z m189 -9 c17 -33 11 -47 -10 -21 -26 33 -49 19 -73 -45 -22 -61 -19 -100
8 -100 14 0 25 14 40 53 11 28 24 52 29 52 5 0 6 -23 4 -50 -3 -28 -1 -53 4
-56 5 -4 23 6 39 22 22 21 29 24 29 11 0 -28 37 -41 66 -22 35 23 28 55 -15
77 -40 20 -53 38 -42 57 9 14 82 41 94 34 12 -7 -3 -23 -22 -23 -9 0 -25 -6
-35 -13 -16 -12 -14 -15 21 -37 47 -31 57 -76 24 -109 -25 -25 -89 -29 -97 -6
-5 12 -9 12 -29 -1 -23 -15 -55 -10 -55 9 0 5 -8 3 -18 -6 -43 -39 -82 -11
-82 58 0 89 88 175 120 116z m628 3 c5 -9 3 -43 -7 -85 -19 -88 -7 -108 39
-64 18 17 30 23 30 15 0 -23 -42 -60 -67 -60 -36 0 -45 36 -27 105 8 31 14 64
12 73 -6 28 -72 -46 -93 -103 -37 -100 -50 -88 -30 25 15 86 35 129 35 76 l0
-28 35 31 c40 34 60 39 73 15z m516 -6 c15 -24 -1 -35 -19 -12 -29 39 -75 -19
-75 -96 0 -89 48 -86 76 5 21 65 39 73 31 13 -11 -81 -72 -123 -116 -79 -26
26 -27 72 -2 127 28 62 79 83 105 42z m776 -621 c0 -393 -1 -427 -20 -495 -46
-167 -133 -284 -256 -347 l-59 -30 -355 0 -355 0 -77 37 c-98 47 -166 109
-208 193 l-33 65 -91 -6 c-50 -3 -158 -12 -241 -21 -82 -8 -190 -19 -240 -23
-49 -5 -117 -14 -150 -19 -293 -50 -387 -68 -537 -106 -281 -71 -459 -139
-677 -258 -67 -37 -124 -67 -126 -67 -11 0 -76 102 -72 113 3 6 33 44 66 84
118 139 376 287 622 358 201 58 767 149 1302 211 53 6 57 8 51 28 -13 42 -54
128 -74 157 l-21 29 -679 -1 -679 -2 -3 -66 -3 -66 -37 -3 -38 -3 0 315 0 316
40 0 40 0 0 -75 0 -75 1404 0 c1264 0 1406 2 1420 16 14 14 22 60 18 104 -4
40 8 60 38 60 l30 0 0 -423z m-720 -1634 c0 -46 4 -73 9 -67 5 5 11 17 13 27
4 22 22 24 26 2 6 -26 -26 -65 -53 -65 -13 0 -27 -5 -30 -10 -4 -6 -12 -10
-18 -9 -7 1 -19 0 -27 -4 -19 -7 -72 -21 -85 -22 -5 0 -25 -6 -42 -14 -18 -7
-40 -11 -48 -7 -9 3 -24 1 -34 -6 -29 -18 -51 -3 -52 34 l-1 33 -14 -32 c-15
-36 -81 -76 -117 -71 -12 1 -28 -1 -35 -6 -7 -4 -16 -6 -19 -3 -7 8 26 169 38
183 5 7 24 8 46 5 35 -6 38 -9 39 -41 3 -92 4 -95 14 -80 5 8 10 32 10 53 0
26 4 37 15 37 8 0 15 -3 15 -8 0 -4 10 -12 23 -17 18 -8 21 -17 19 -44 -2 -22
0 -31 7 -26 6 3 11 18 11 33 0 42 27 74 58 70 21 -2 28 -9 30 -30 3 -23 -2
-30 -25 -40 -24 -10 -25 -12 -9 -16 24 -5 46 23 46 59 0 26 22 59 40 59 5 0
15 3 24 6 13 5 16 -3 16 -47 0 -64 15 -56 27 16 7 41 12 51 31 53 18 3 22 10
22 38 0 24 5 34 15 34 12 0 15 -15 15 -77z m-1429 47 c23 -13 25 -43 4 -60
-17 -14 -39 -4 -31 16 10 25 -11 15 -43 -21 -38 -43 -38 -52 -5 -67 23 -11 29
-9 61 26 38 40 68 44 87 14 8 -13 7 -23 -2 -39 -19 -29 -8 -35 16 -9 11 12 18
28 15 36 -3 8 0 14 7 14 7 0 21 11 32 25 19 25 61 34 72 16 3 -5 14 -7 24 -4
22 5 46 -21 38 -42 -7 -20 -26 -19 -26 1 0 8 -5 12 -11 8 -6 -3 -8 -15 -6 -26
4 -14 0 -22 -14 -25 -11 -3 -38 -37 -61 -75 -38 -65 -61 -88 -74 -75 -3 3 13
36 36 73 46 77 50 85 34 91 -6 2 -33 -30 -60 -72 -27 -41 -55 -75 -61 -75 -18
0 -16 14 9 56 l21 36 -29 -6 c-19 -4 -36 -1 -49 8 -11 9 -33 16 -49 16 -35 0
-66 25 -66 53 0 11 12 36 27 56 46 61 66 71 104 51z m829 -114 c0 -8 -9 -42
-19 -75 -18 -59 -13 -82 9 -41 6 11 15 20 20 20 16 0 11 -25 -9 -47 -16 -17
-31 -20 -98 -19 -76 1 -78 1 -77 26 0 14 4 36 9 50 7 22 6 23 -9 11 -9 -7 -21
-31 -28 -52 -12 -42 -15 -43 -91 -33 -57 8 -66 27 -37 83 18 36 24 40 55 39
45 -2 50 -10 30 -47 -17 -34 -19 -51 -6 -51 5 0 17 20 28 45 17 43 20 46 53
43 30 -3 35 -6 34 -28 -1 -14 -5 -33 -9 -44 -6 -14 -5 -18 6 -14 7 2 20 22 28
44 17 44 29 56 51 49 10 -3 19 5 27 25 12 31 33 41 33 16z m-527 -21 c31 -30
-17 -83 -54 -60 -7 5 -10 3 -7 -6 2 -8 16 -15 30 -17 19 -2 30 6 52 38 22 34
32 41 54 38 21 -2 28 -9 30 -30 4 -30 -25 -52 -52 -42 -9 3 -16 2 -16 -4 0
-21 35 -22 62 -2 15 11 30 20 33 20 12 0 3 -21 -17 -40 -18 -17 -31 -20 -58
-15 -19 3 -53 7 -76 8 -44 2 -74 20 -74 45 0 21 48 82 65 82 7 0 20 -7 28 -15z"/>
<path d="M1289 3679 c-31 -3 -77 -16 -103 -28 -86 -42 -106 -96 -106 -283 0
-71 1 -129 3 -129 11 -6 1377 -6 1381 -1 3 4 -9 35 -25 67 -16 33 -41 98 -55
145 -32 101 -59 144 -114 181 -72 48 -121 53 -540 54 -212 0 -410 -3 -441 -6z"/>
<path d="M1617 2763 c-8 -13 -29 -134 -24 -139 3 -3 23 3 46 12 65 26 101 85
69 112 -18 14 -85 26 -91 15z"/>
<path d="M2937 2763 c-9 -14 -36 -137 -31 -142 2 -2 24 4 49 13 68 26 106 86
73 114 -18 15 -85 26 -91 15z"/>
<path d="M2560 1852 c21 -43 47 -108 60 -147 34 -104 58 -142 114 -176 88 -54
135 -59 597 -54 463 4 461 4 532 73 49 48 57 81 57 243 l0 137 -699 0 -698 0
37 -76z"/>
<path d="M3216 361 c-3 -5 -2 -19 2 -32 9 -23 9 -23 14 4 5 27 -5 46 -16 28z"/>
<path d="M3110 305 c0 -19 5 -35 10 -35 6 0 10 16 10 35 0 19 -4 35 -10 35 -5
0 -10 -16 -10 -35z"/>
<path d="M2800 316 c0 -9 7 -12 20 -9 11 3 20 9 20 14 0 5 -9 9 -20 9 -11 0
-20 -6 -20 -14z"/>
<path d="M3020 310 c0 -5 5 -10 10 -10 6 0 10 5 10 10 0 6 -4 10 -10 10 -5 0
-10 -4 -10 -10z"/>
<path d="M2785 260 c-4 -6 7 -10 27 -9 27 0 30 2 13 9 -27 12 -33 12 -40 0z"/>
<path d="M2795 210 c4 -6 11 -8 16 -5 14 9 11 15 -7 15 -8 0 -12 -5 -9 -10z"/>
<path d="M2006 355 c-3 -9 0 -15 8 -15 7 0 13 7 13 15 0 8 -4 15 -8 15 -4 0
-9 -7 -13 -15z"/>
<path d="M1852 320 c-15 -24 -16 -40 -2 -40 6 0 10 7 10 15 0 9 7 18 15 21 18
7 20 24 2 24 -7 0 -18 -9 -25 -20z"/>
<path d="M2371 242 c-7 -13 -11 -31 -9 -40 3 -14 6 -13 17 6 7 13 11 31 9 40
-3 14 -6 13 -17 -6z"/>
<path d="M2589 234 c-11 -30 -3 -46 11 -24 10 16 13 50 5 50 -3 0 -10 -12 -16
-26z"/>
<path d="M2105 280 c-3 -5 -1 -10 4 -10 6 0 11 5 11 10 0 6 -2 10 -4 10 -3 0
-8 -4 -11 -10z"/>
<path d="M2200 259 c0 -5 5 -7 10 -4 6 3 10 8 10 11 0 2 -4 4 -10 4 -5 0 -10
-5 -10 -11z"/>
</g>
</svg>
